<svg version="1.1" id="Layer_1" xmlns="http://www.w3.org/2000/svg" xmlns:xlink="http://www.w3.org/1999/xlink" x="0px" y="0px"
	 width="100%" viewBox="0 0 1024 1024" enable-background="new 0 0 1024 1024" xml:space="preserve">
<path fill="#000000" opacity="1.000000" stroke="none" 
	d="
M467.635193,461.999939 
	C467.635742,412.502106 467.633087,363.504333 467.641693,314.506531 
	C467.642914,307.693420 467.668579,307.679413 474.566498,307.669067 
	C484.066040,307.654785 493.565643,307.669403 503.065216,307.661713 
	C510.053253,307.656067 510.062561,307.648987 510.064575,300.821991 
	C510.073242,271.489990 510.023743,242.157745 510.166962,212.826431 
	C510.180328,210.094009 508.351288,205.245667 513.214111,205.375717 
	C517.403320,205.487762 515.825623,210.076660 515.836914,212.729340 
	C515.960022,241.894104 515.921387,271.059540 515.915466,300.224823 
	C515.913940,307.649200 515.895813,307.654907 523.364380,307.659760 
	C532.863953,307.665924 542.373108,307.916016 551.859192,307.558685 
	C556.894470,307.369019 558.392212,308.935883 558.374756,314.030518 
	C558.200500,365.027618 558.270386,416.025574 558.274658,467.023285 
	C558.276611,490.355560 558.168945,513.688904 558.386963,537.019165 
	C558.432312,541.867981 556.854431,543.432617 552.083984,543.279785 
	C542.927185,542.986450 533.754272,543.191650 524.588013,543.204651 
	C515.952271,543.216919 515.951477,543.225159 515.945923,551.665222 
	C515.926819,580.497192 515.911621,609.329102 515.881897,638.161072 
	C515.880188,639.824707 515.837036,641.495239 515.679199,643.149841 
	C515.522156,644.795227 514.795166,646.031433 512.865601,645.967957 
	C510.913513,645.903809 510.373444,644.522522 510.229828,642.936523 
	C510.094971,641.446960 510.110077,639.941162 510.109314,638.442505 
	C510.094421,609.277222 510.083008,580.111938 510.080566,550.946655 
	C510.079926,543.216248 510.094727,543.208557 502.343140,543.195923 
	C492.843567,543.180420 483.338654,542.987915 473.846680,543.253052 
	C469.123627,543.385010 467.481415,541.878540 467.524048,536.996094 
	C467.740906,512.165588 467.631012,487.332275 467.635193,461.999939 
z"/>
<path fill="#000000" opacity="1.000000" stroke="none" 
	d="
M707.191528,575.000000 
	C707.190552,586.996826 707.016968,598.497437 707.272339,609.988525 
	C707.376709,614.681091 705.521362,616.115295 701.101685,616.012207 
	C692.108826,615.802429 683.108154,615.934326 674.110657,615.916138 
	C667.178467,615.902100 667.052917,616.002991 667.053467,622.791565 
	C667.055847,652.116760 667.125061,681.442322 666.980225,710.766724 
	C666.967102,713.423035 668.907227,718.250305 663.756348,718.021118 
	C659.250610,717.820679 661.124695,713.338928 661.112427,710.759644 
	C660.972290,681.268494 660.923035,651.775818 661.112122,622.285217 
	C661.142883,617.483887 659.633484,615.786560 654.864624,615.881287 
	C644.038879,616.096497 633.203125,615.790649 622.376282,615.977051 
	C617.803345,616.055786 615.883057,614.734985 615.892212,609.739563 
	C616.015015,542.591675 615.952087,475.443512 615.949768,408.295380 
	C615.949524,401.762573 616.079102,401.666962 622.711548,401.658295 
	C633.375305,401.644348 644.049133,401.371948 654.698425,401.762482 
	C659.974915,401.956024 661.116699,399.947449 661.088623,395.121185 
	C660.916260,365.463806 660.964539,335.804840 661.069458,306.146851 
	C661.078369,303.629761 659.660034,299.451843 663.781128,299.273132 
	C668.473145,299.069702 667.015076,303.477600 667.022949,306.126404 
	C667.111633,335.951111 667.169067,365.776917 666.958496,395.600494 
	C666.923767,400.515076 668.542419,401.906097 673.269104,401.742065 
	C682.422180,401.424469 691.604614,401.911896 700.754150,401.546753 
	C705.815674,401.344727 707.316895,402.991333 707.298096,408.047272 
	C707.125610,454.533813 707.190430,501.021210 707.187134,547.508362 
	C707.186523,556.505554 707.189880,565.502808 707.191528,575.000000 
z"/>
<path fill="#000000" opacity="1.000000" stroke="none" 
	d="
M379.066833,401.648682 
	C387.220520,401.649719 394.886139,401.640259 402.551727,401.655670 
	C409.299835,401.669250 409.320312,401.681580 409.320679,408.656769 
	C409.323853,469.648376 409.319031,530.640015 409.316772,591.631592 
	C409.316528,597.964050 409.094818,604.307068 409.394684,610.625305 
	C409.599609,614.943420 407.764130,616.118774 403.809326,616.022827 
	C393.650818,615.776184 383.485596,615.822998 373.324738,615.651306 
	C367.858032,615.558899 366.924042,616.329224 366.922028,621.859619 
	C366.911469,651.188843 366.994415,680.518494 366.812286,709.846558 
	C366.794739,712.671753 369.014526,717.813538 364.062225,717.944031 
	C358.885101,718.080322 361.095062,712.894409 361.079132,710.078186 
	C360.914124,680.916504 360.980469,651.753479 360.977539,622.590881 
	C360.976898,616.225220 360.757355,615.964661 354.140991,615.930786 
	C344.475922,615.881348 334.806671,615.761597 325.146759,615.990234 
	C320.569580,616.098511 318.662537,614.832275 318.672882,609.810486 
	C318.811920,542.320068 318.796234,474.829193 318.681824,407.338684 
	C318.674500,403.028412 319.863434,401.454041 324.329254,401.563446 
	C335.321106,401.832733 346.332611,401.392517 357.318817,401.758820 
	C362.531433,401.932648 363.777618,400.044739 363.745850,395.136414 
	C363.556152,365.808350 363.653137,336.478424 363.657654,307.149139 
	C363.657928,305.482971 363.691376,303.816803 363.709045,302.150635 
	C363.727234,300.433929 364.378052,299.217987 366.270721,299.127411 
	C368.412079,299.024872 369.232513,300.275818 369.268646,302.234283 
	C369.296295,303.733612 369.318268,305.233276 369.318329,306.732788 
	C369.319275,335.228851 369.287018,363.724976 369.330048,392.220978 
	C369.346008,402.798798 368.120819,401.550354 379.066833,401.648682 
z"/>
</svg>